<svg width="435" height="429" viewBox="0 0 435 429" fill="none" xmlns="http://www.w3.org/2000/svg">
<path fill-rule="evenodd" clip-rule="evenodd" d="M91.4379 18.8078C91.4658 18.9675 91.5249 19.2242 91.639 19.6595L91.6738 19.7918C92.0116 21.0751 92.5232 23.0187 92.3164 25.7039C92.2381 26.7198 92.7994 27.7884 94.0377 28.8636C94.7706 29.5 95.6253 30.0313 96.4129 30.4318C97.5053 29.0189 98.9602 27.7168 100.554 26.5353C102.743 24.913 105.347 23.4068 108.02 22.0641C112.394 19.8667 117.073 18.0476 120.672 16.8351C120.393 16.2147 120.113 15.5504 119.864 14.8892C119.574 14.12 119.309 13.3105 119.141 12.5549C119.001 11.9304 118.874 11.1221 118.994 10.3485C118.938 10.1992 118.82 9.95897 118.606 9.63034C118.176 8.96982 117.505 8.17003 116.709 7.36545C115.92 6.56753 115.062 5.81994 114.293 5.25393C113.909 4.971 113.568 4.7487 113.285 4.59115C113.194 4.54025 113.114 4.49878 113.044 4.46558C112.914 4.51215 112.739 4.58269 112.515 4.68449C111.859 4.98291 110.975 5.46006 109.912 6.08798C107.795 7.33733 105.134 9.0817 102.465 10.9036C97.4591 14.3204 92.613 17.8806 91.4379 18.8078ZM113.287 4.39455C113.286 4.39529 113.274 4.3983 113.251 4.40133C113.276 4.39531 113.287 4.3938 113.287 4.39455ZM119.021 10.4396C119.021 10.4394 119.02 10.434 119.018 10.4236C119.021 10.4345 119.022 10.4397 119.021 10.4396ZM95.4175 34.3865C94.1759 33.8354 92.6961 32.9961 91.4152 31.8839C89.7627 30.4491 88.1083 28.2516 88.3282 25.3967C88.4829 23.3885 88.1143 21.9855 87.7942 20.7669L87.7699 20.6744L87.7541 20.614L87.7541 20.6139C87.6082 20.0589 87.4054 19.2874 87.4164 18.5456C87.4305 17.5832 87.7895 16.6522 88.6481 15.9215C89.4987 15.1976 94.8565 11.2539 100.21 7.59981C102.903 5.7615 105.649 3.95937 107.878 2.64336C108.988 1.98859 110.012 1.42835 110.86 1.04308C111.28 0.85192 111.707 0.680722 112.109 0.56661C112.426 0.476524 113.059 0.318165 113.729 0.476802C114.712 0.709407 115.781 1.38196 116.665 2.03316C117.622 2.73795 118.637 3.6261 119.553 4.55226C120.462 5.47174 121.331 6.48436 121.958 7.44796C122.27 7.92768 122.559 8.45072 122.754 8.98519C122.936 9.48421 123.117 10.2125 122.94 10.9954C122.944 10.9772 122.944 10.9782 122.944 11.0015C122.946 11.0618 122.952 11.271 123.044 11.6831C123.157 12.1869 123.353 12.8039 123.607 13.4793C124.115 14.8267 124.787 16.2297 125.246 17.0977L125.645 17.8528C130.281 17.6841 133.926 18.4899 135.928 19.3299L136.235 19.4587L136.484 19.6801C138.466 21.4439 141.25 24.2652 143.071 26.9818C143.961 28.3088 144.768 29.8237 144.991 31.2972C145.106 32.0644 145.08 32.9317 144.717 33.7705C144.439 34.4114 144.007 34.9365 143.467 35.3436C143.478 35.4831 143.501 35.668 143.544 35.9052C143.735 36.9555 144.223 38.4997 145.005 40.4946C146.557 44.4511 149.112 49.7855 152.157 55.6881C158.238 67.4738 166.163 81.3099 171.609 90.4562L171.683 90.5804L171.738 90.714C173.72 95.4978 177.813 102.653 183.572 108.432C189.335 114.216 196.533 118.399 204.796 117.858C217.134 117.051 225.287 123.71 232.131 133.391C235.541 138.213 238.695 143.876 241.925 149.876C242.52 150.982 243.118 152.099 243.721 153.226C246.409 158.248 249.2 163.464 252.315 168.698C255.432 173.936 261.329 185.222 268.809 200.006L269.801 201.967L267.756 202.77C261.736 205.136 252.559 208.827 244.594 212.212C240.609 213.905 236.945 215.514 234.136 216.838C232.729 217.501 231.558 218.083 230.677 218.562C230.236 218.802 229.885 219.006 229.623 219.173C229.492 219.256 229.393 219.324 229.321 219.377C229.255 219.426 229.228 219.45 229.228 219.45L229.229 219.449C228.672 219.984 227.622 220.675 226.445 221.4C225.196 222.169 223.591 223.102 221.76 224.141C219.235 225.574 216.24 227.232 213.1 228.971L213.1 228.971C211.69 229.752 210.251 230.548 208.812 231.348C204.155 233.937 199.493 236.562 195.75 238.816C193.877 239.944 192.256 240.966 190.991 241.835C189.676 242.738 188.894 243.377 188.571 243.74L188.369 243.966L188.11 244.122C183.808 246.713 177.279 250.48 171.676 253.358C168.885 254.791 166.265 256.035 164.244 256.798C163.251 257.173 162.293 257.474 161.485 257.594C161.092 257.653 160.591 257.692 160.085 257.594C159.565 257.495 158.766 257.187 158.312 256.327L140.064 221.821C138.135 218.174 136.477 212.586 135.2 206.21C133.915 199.791 132.986 192.418 132.581 185.106C132.177 177.801 132.291 170.501 133.117 164.24C133.93 158.07 135.473 152.571 138.178 149.171C140.415 146.358 141.673 143.978 142.246 141.694C142.813 139.431 142.747 137.104 142.081 134.326C141.407 131.511 140.135 128.3 138.336 124.287C137.421 122.246 136.416 120.097 135.31 117.729L135.309 117.728L135.308 117.726C134.2 115.355 132.99 112.765 131.665 109.848C124.118 93.2247 111.298 70.0336 104.37 57.9525C104.029 58.4181 103.654 58.8502 103.248 59.2089C102.549 59.8254 101.396 60.5365 99.9659 60.2559C98.5535 59.9787 97.6228 58.8778 97.0075 57.7141L90.2438 44.924L89.8058 44.0959L90.1617 43.2293C91.0337 41.1056 92.7893 37.8479 95.4175 34.3865ZM100.051 34.9967C97.2361 38.3327 95.2822 41.6373 94.2308 43.9069L100.543 55.8442C100.602 55.9541 100.654 56.0437 100.701 56.1162C100.96 55.8586 101.267 55.4507 101.584 54.9135C101.93 54.3257 102.23 53.6814 102.449 53.1229L103.958 49.2661L106.04 52.8459C112.313 63.6292 126.964 89.8172 135.307 108.194C136.571 110.977 137.79 113.587 138.915 115.996L138.915 115.996C140.051 118.427 141.091 120.655 141.986 122.651C143.8 126.697 145.205 130.193 145.971 133.394C146.747 136.633 146.887 139.633 146.126 142.667C145.37 145.682 143.766 148.571 141.308 151.661C139.317 154.164 137.878 158.731 137.082 164.763C136.299 170.705 136.179 177.743 136.575 184.885C136.97 192.021 137.877 199.205 139.122 205.424C140.377 211.687 141.945 216.821 143.6 219.951L161.362 253.539C161.732 253.443 162.22 253.286 162.831 253.056C164.634 252.376 167.091 251.216 169.848 249.8C174.753 247.281 180.417 244.047 184.606 241.557C181.122 232.371 179.037 224.194 179.223 217.947C179.634 204.16 181.378 194.121 182.675 186.651L182.675 186.651L182.675 186.65L182.675 186.65C182.968 184.962 183.239 183.405 183.466 181.966C184.088 178.017 184.354 175.13 184.012 172.791C183.702 170.667 182.884 168.963 181.181 167.339C178.068 165.923 175.598 164.342 174.62 163.464C174.486 163.344 174.314 163.179 174.161 162.985C174.088 162.892 173.966 162.725 173.864 162.5C173.786 162.329 173.56 161.787 173.741 161.104C173.973 160.229 174.662 159.809 175.146 159.668C175.548 159.551 175.889 159.584 176.026 159.601C176.337 159.639 176.614 159.736 176.779 159.799C177.425 160.044 178.455 160.589 179.876 161.445C179.805 161.173 179.74 160.91 179.681 160.655C178.104 160.056 176.76 159.409 175.978 158.617C175.563 158.195 174.976 157.39 175.133 156.295C175.285 155.241 176.031 154.639 176.476 154.358C177.366 153.796 178.675 153.493 179.935 153.288C181.294 153.067 182.958 152.91 184.802 152.8C192.161 152.362 203.047 152.642 210.799 153.03L214.795 153.23L212.237 156.306L212.237 156.306L212.236 156.307C212.228 156.319 212.147 156.437 212.055 156.737C211.957 157.058 211.866 157.528 211.823 158.175C211.737 159.472 211.855 161.357 212.391 163.934C213.463 169.085 216.165 176.792 221.927 187.687L221.997 187.82L222.047 187.962C225.551 197.991 226.528 199.747 227.233 201.014C227.255 201.053 227.276 201.092 227.298 201.131C227.325 201.18 227.352 201.229 227.379 201.278C228.23 202.832 228.943 204.46 231.726 213.555C231.844 213.498 231.964 213.441 232.085 213.384C232.153 213.352 232.221 213.319 232.29 213.287C232.336 213.265 232.383 213.242 232.43 213.22C235.308 211.863 239.027 210.231 243.03 208.53C250.182 205.491 258.293 202.212 264.248 199.854C257.23 186.015 251.775 175.614 248.877 170.743C245.712 165.423 242.869 160.111 240.179 155.085C239.58 153.966 238.989 152.86 238.403 151.772C235.171 145.769 232.119 140.302 228.865 135.7C222.385 126.534 215.387 121.174 205.057 121.85C195.188 122.495 186.928 117.467 180.738 111.255C174.596 105.092 170.26 97.5456 168.099 92.3799C162.633 83.1949 154.706 69.3537 148.602 57.5221C145.542 51.5895 142.911 46.1083 141.282 41.9555C140.473 39.8958 139.871 38.062 139.609 36.6217C139.48 35.9145 139.405 35.1604 139.503 34.4647C139.598 33.7849 139.927 32.7547 140.983 32.1963C141.013 32.1804 141.034 32.1674 141.048 32.1577C141.053 32.1165 141.056 32.0332 141.035 31.8934C140.948 31.3141 140.547 30.3994 139.749 29.209C138.266 26.9967 135.916 24.5606 134.085 22.9013C132.883 22.4524 130.859 21.9872 128.247 21.8625L128.29 21.9996C128.557 22.843 129.212 25.1969 129.834 28.2569C130.101 29.5739 130.459 30.3437 130.717 30.7486C130.798 30.8758 130.865 30.9609 130.912 31.0138L131.475 31.1874L131.863 31.9198C134.242 36.4199 139.58 46.7869 141.669 51.8688C142.856 54.758 143.691 55.4316 143.93 55.6206C143.977 55.6582 144.021 55.6914 144.082 55.7368L144.091 55.7435C144.142 55.7814 144.229 55.8469 144.314 55.9167C144.474 56.0495 144.911 56.422 145.115 57.0729C145.321 57.7251 145.182 58.291 145.095 58.5761C145.005 58.865 144.87 59.1599 144.757 59.4004C143.983 61.0401 142.516 62.7444 140.783 64.3122C139.018 65.9092 136.845 67.4838 134.502 68.8369C129.922 71.4818 124.244 73.5341 119.516 72.7339L118.752 72.6047L118.275 71.9946C115.431 68.3613 112.808 62.196 110.823 57.2672C110.474 56.3995 110.145 55.5705 109.835 54.7913L109.834 54.7895C109.238 53.2878 108.715 51.9716 108.264 50.9216C107.987 50.2777 107.763 49.7954 107.589 49.4649C107.577 49.4596 107.564 49.4542 107.552 49.4489C107.547 49.4465 107.542 49.4442 107.536 49.4418C107.163 49.2741 106.878 49.0388 106.689 48.8609C106.305 48.5004 105.959 48.033 105.663 47.5881C105.055 46.6703 104.385 45.4167 103.733 44.0885C102.418 41.409 101.044 38.1511 100.179 35.9702L99.9773 35.4611L100.051 34.9967ZM130.976 31.08C130.983 31.0858 130.986 31.0883 130.986 31.0881C130.986 31.088 130.985 31.0869 130.983 31.0849C130.981 31.0837 130.979 31.082 130.976 31.08ZM141.074 32.1375C141.074 32.1377 141.072 32.1392 141.069 32.1419L141.072 32.1388C141.073 32.1378 141.074 32.1374 141.074 32.1375ZM228.112 215.413C225.13 205.641 224.517 204.379 223.871 203.2L223.813 203.095L223.733 202.95C222.898 201.437 221.873 199.581 218.32 189.424C212.499 178.396 209.644 170.366 208.475 164.749C208.277 163.796 208.126 162.908 208.017 162.08C207.9 162.286 207.778 162.497 207.652 162.713C204.477 168.157 199.664 170.215 194.779 170.43C192.253 170.542 189.705 170.166 187.32 169.544C187.62 170.391 187.834 171.279 187.97 172.213C188.408 175.211 188.041 178.635 187.417 182.589C187.181 184.084 186.904 185.681 186.606 187.397L186.606 187.397L186.606 187.398C185.311 194.863 183.623 204.591 183.222 218.066C183.066 223.299 184.771 230.496 187.95 239.082C188.201 238.902 188.46 238.721 188.726 238.538C190.086 237.604 191.783 236.535 193.686 235.389C197.494 233.096 202.211 230.441 206.869 227.852C208.32 227.045 209.765 226.245 211.177 225.463L211.183 225.46L211.184 225.459C214.314 223.726 217.279 222.085 219.786 220.662C221.604 219.63 223.16 218.725 224.347 217.994C225.606 217.219 226.267 216.748 226.46 216.563C226.854 216.185 227.454 215.793 228.112 215.413ZM195 166.412C198.598 166.16 201.882 164.641 204.174 160.737L203.837 160.967L203.836 160.968L203.833 160.97C202.916 161.596 201.901 162.29 200.879 162.961C199.091 164.136 197.069 165.392 195 166.412ZM202.964 156.723C198.007 156.576 192.74 156.52 188.288 156.652C188.44 156.904 188.574 157.164 188.684 157.43C188.986 158.161 189.313 159.489 188.464 160.676C187.624 161.849 186.22 162.054 185.149 162.02C184.852 162.01 184.535 161.982 184.2 161.934C184.689 163.224 185.315 163.841 185.889 164.152C186.589 164.531 187.58 164.655 188.967 164.385C191.82 163.831 195.331 161.821 198.683 159.619C199.694 158.954 200.624 158.318 201.503 157.717L201.507 157.714L201.509 157.713C202.009 157.371 202.492 157.041 202.964 156.723ZM183.253 157.639C183.591 157.735 183.892 157.809 184.159 157.866C183.86 157.58 183.54 157.342 183.251 157.181C183.245 157.309 183.245 157.461 183.253 157.639ZM185.021 159.058C185.021 159.057 185.017 159.047 185.014 159.028C185.021 159.049 185.022 159.058 185.021 159.058ZM185.62 158.008C185.638 158.002 185.648 158.001 185.649 158.001C185.649 158.001 185.648 158.002 185.645 158.003C185.642 158.004 185.638 158.005 185.633 158.006C185.629 158.007 185.625 158.007 185.62 158.008ZM100.411 56.3498C100.411 56.3493 100.417 56.3462 100.427 56.3421C100.417 56.3482 100.411 56.3503 100.411 56.3498ZM100.923 56.3979C100.927 56.4011 100.93 56.403 100.93 56.4032C100.93 56.4033 100.927 56.4017 100.923 56.3979ZM124.903 24.7103C121.209 25.1157 115.716 26.5984 111.958 28.5853C111.065 29.0577 110.199 29.4745 109.431 29.844L109.431 29.8441L109.431 29.8443C109.131 29.9883 108.847 30.1251 108.582 30.2553C107.594 30.7402 106.833 31.1497 106.213 31.6006C105.215 32.3268 104.488 33.2156 104.109 35.025C104.953 37.1234 106.173 39.9796 107.324 42.3264C107.956 43.6134 108.534 44.6799 108.997 45.3768C109.091 45.5199 109.171 45.6319 109.236 45.7178C109.355 45.7516 109.463 45.793 109.558 45.8368C109.908 45.9988 110.151 46.2207 110.287 46.3602C110.563 46.6419 110.776 46.9761 110.925 47.2329C111.244 47.7793 111.588 48.5246 111.939 49.343C112.411 50.4426 112.969 51.8469 113.581 53.3867L113.581 53.3871C113.887 54.1556 114.205 54.9578 114.534 55.7729C116.433 60.4893 118.676 65.6864 120.943 68.8819C124.192 69.1285 128.477 67.6969 132.502 65.3729C134.622 64.1486 136.562 62.7373 138.099 61.3462C139.392 60.1764 140.315 59.0977 140.85 58.2248C140.034 57.4094 139.058 56.0392 137.969 53.3894C136.038 48.6905 131.092 39.0395 128.591 34.2915C128.098 33.9258 127.679 33.4256 127.344 32.8986C126.765 31.9912 126.255 30.7361 125.914 29.0531C125.555 27.2856 125.187 25.7802 124.903 24.7103ZM109.428 45.9459L109.425 45.9437C109.433 45.9506 109.434 45.952 109.428 45.9459ZM274.514 216.301C284.271 213.252 294.208 210.148 299.461 208.084L301.155 207.418L301.977 209.042C324.438 253.436 361.487 330.002 381.667 372.088L382.191 373.181L381.464 374.151C377.447 379.518 370.694 387.945 363.456 395.823C356.281 403.631 348.415 411.144 342.194 414.434C330.137 420.81 316.571 425.951 304.251 427.644C295.836 428.8 287.761 428.372 281.162 425.411C279.454 425.148 277.857 424.743 276.367 424.222C268.102 421.327 263.537 414.947 261.84 409.81L203.067 298.669L206.147 297.04C203.278 296.462 200.973 295.64 199.395 294.746L199.081 294.569L198.849 294.293C197.427 292.602 197.254 290.373 197.798 288.326C198.274 286.529 199.327 284.712 200.844 283.07L191.48 265.363L195.016 263.494C194.903 263.28 194.638 262.944 194.158 262.777C193.719 262.625 193.374 262.711 193.269 262.745C193.249 262.751 193.234 262.756 193.223 262.76C193.213 262.763 193.208 262.765 193.207 262.765C193.207 262.764 193.213 262.76 193.226 262.752L193.226 262.751L193.226 262.751C193.271 262.721 193.398 262.636 193.624 262.444C194.282 261.88 195.157 260.954 196.33 259.714L196.33 259.713C196.434 259.604 196.539 259.492 196.648 259.378L196.778 259.24C199.421 256.448 203.139 252.604 207.576 249.877C208.27 249.172 209.317 248.383 210.493 247.574C211.853 246.64 213.551 245.572 215.454 244.426C219.262 242.132 223.978 239.478 228.636 236.888C230.091 236.08 231.538 235.278 232.953 234.495L232.954 234.495C236.083 232.762 239.047 231.121 241.554 229.698C243.372 228.666 244.928 227.761 246.115 227.03C247.374 226.255 248.035 225.784 248.227 225.6C248.612 225.23 249.134 224.943 249.543 224.737C250.01 224.502 250.582 224.25 251.227 223.988C252.519 223.462 254.216 222.848 256.184 222.174C260.125 220.823 265.266 219.195 270.682 217.499C271.949 217.102 273.23 216.702 274.514 216.301ZM207.9 254.465C204.714 256.753 201.934 259.612 199.682 261.99C199.529 262.153 199.376 262.315 199.224 262.475L199.221 262.479C198.098 263.667 197.057 264.77 196.225 265.482C196.19 265.512 196.154 265.543 196.116 265.574L203.959 280.406C207.435 278.04 212.232 276.398 218.177 276.398C214.197 268.709 210.689 261.301 207.9 254.465ZM219.964 279.808L219.925 280.45C213.623 280.075 208.915 281.75 205.844 283.97L210.989 293.698C212.691 293.852 214.563 293.918 216.583 293.857C219.739 293.764 223.229 293.364 226.959 292.528C224.526 288.25 222.181 283.994 219.964 279.808ZM230.967 291.483C234.777 290.35 238.785 288.755 242.905 286.576C249.037 283.333 252.681 280.292 255.046 277.462C257.404 274.64 258.582 271.922 259.663 269.111C259.791 268.78 259.918 268.445 260.046 268.106C260.35 267.302 260.661 266.478 261.005 265.644C257.128 252.882 255.83 249.52 253.798 244.256L253.798 244.256L253.798 244.255C252.574 241.084 251.083 237.221 248.6 230.196C248.541 230.233 248.481 230.271 248.42 230.308C248.351 230.351 248.282 230.394 248.212 230.436C246.964 231.205 245.359 232.138 243.528 233.177C241.003 234.61 238.008 236.268 234.869 238.006L234.866 238.008C233.457 238.788 232.018 239.585 230.58 240.384C225.923 242.973 221.26 245.598 217.517 247.852C215.645 248.98 214.024 250.002 212.758 250.871C212.122 251.309 211.61 251.684 211.215 251.996C215.942 263.778 222.964 277.471 230.967 291.483ZM257.482 242.685L257.482 242.686L257.482 242.687C258.362 244.968 259.113 246.918 259.983 249.382L260.852 247.408C261.053 247.496 261.676 247.599 262.985 247.391C264.212 247.196 265.745 246.782 267.532 246.195C270.276 245.295 273.42 244.058 276.719 242.761L276.721 242.76L276.737 242.754C277.742 242.358 278.763 241.957 279.79 241.558C284.125 239.875 288.585 238.234 292.342 237.398C294.218 236.98 296.035 236.736 297.636 236.833C299.222 236.929 300.869 237.379 302.054 238.632C302.588 239.197 303.056 239.764 303.397 240.334C303.734 240.896 304.037 241.61 304.026 242.428C304.01 243.532 303.472 244.31 302.834 244.856C303.654 248.879 305.98 255.156 311.507 263.306C314.376 267.537 318.812 276.059 323.831 286.422C328.874 296.834 334.569 309.237 339.969 321.326C345.369 333.416 350.479 345.204 354.352 354.386C356.289 358.977 357.919 362.922 359.122 365.932C360.303 368.885 361.126 371.063 361.387 372.029C362.02 374.367 361.434 377.142 359.932 380.1C358.409 383.097 355.825 386.529 352.033 390.333C344.445 397.946 331.794 407.274 312.328 417.813C306.622 420.903 301.441 422.979 296.754 424.234C298.98 424.199 301.303 424.011 303.706 423.681C315.412 422.073 328.52 417.14 340.324 410.897C345.863 407.968 353.315 400.948 360.51 393.116C367.221 385.812 373.521 378.014 377.534 372.721C357.487 330.925 321.535 256.637 299.22 212.454C293.564 214.541 284.482 217.378 275.716 220.116L275.713 220.117C274.423 220.52 273.141 220.92 271.878 221.316C266.456 223.014 261.364 224.627 257.48 225.958C255.536 226.624 253.922 227.21 252.733 227.694C252.486 227.794 252.261 227.889 252.059 227.977C254.648 235.332 256.201 239.361 257.482 242.685ZM282.321 421.535C289.08 422.424 298.275 420.873 310.424 414.296C329.699 403.86 341.985 394.748 349.2 387.509C352.81 383.888 355.094 380.791 356.365 378.288C357.657 375.746 357.79 374.049 357.526 373.074C357.339 372.384 356.622 370.452 355.408 367.417C354.218 364.44 352.598 360.519 350.667 355.941C346.805 346.786 341.706 335.024 336.316 322.957C330.926 310.889 325.249 298.526 320.231 288.166C315.19 277.757 310.875 269.501 308.196 265.551C302.814 257.614 300.205 251.178 299.115 246.568C298.636 246.715 298.132 246.862 297.61 247.01C297.242 247.115 296.86 247.222 296.462 247.334C295.172 247.696 293.723 248.102 292.091 248.607C287.85 249.918 282.452 251.866 276.147 255.201C271.411 257.705 268.807 260.17 267.117 262.589C265.592 264.772 264.754 266.979 263.792 269.509C263.663 269.849 263.532 270.195 263.397 270.547C262.267 273.484 260.9 276.694 258.115 280.026C255.532 283.118 251.809 286.224 246.1 289.394C246.568 289.192 247.035 288.988 247.498 288.782C249.761 287.774 251.909 286.734 253.693 285.736C255.52 284.714 256.812 283.818 257.488 283.126C258.395 282.197 259.379 280.692 260.375 278.816C261.355 276.969 262.282 274.889 263.107 272.9C263.743 271.368 264.307 269.919 264.788 268.684L264.79 268.679L264.791 268.678C264.934 268.31 265.069 267.962 265.197 267.636C265.471 266.938 265.719 266.319 265.924 265.857C266.025 265.631 266.135 265.397 266.248 265.196C266.283 265.134 266.327 265.059 266.38 264.978C266.412 264.929 266.447 264.878 266.486 264.827L266.488 264.824C266.553 264.738 266.795 264.415 267.221 264.191L269.365 263.057L270.069 265.378C281.471 302.93 293.047 326.985 299.823 337.069C301.688 339.845 303.271 342.175 304.604 344.136L304.608 344.142L304.612 344.148L304.614 344.151L304.616 344.154C305.971 346.148 307.066 347.76 307.935 349.072C309.633 351.633 310.668 353.333 311.145 354.762C311.698 356.42 311.484 357.649 311.218 358.95C311.197 359.054 311.174 359.161 311.152 359.271C310.908 360.447 310.595 361.953 310.455 364.456L310.45 364.55L310.436 364.642C309.649 369.853 307.659 374.301 305.105 377.258C302.623 380.131 299.118 382.056 295.6 380.684C295.028 380.46 294.463 380.013 294.03 379.643C293.53 379.216 292.941 378.656 292.282 377.988C290.958 376.648 289.265 374.789 287.281 372.492C283.307 367.893 278.106 361.469 272.258 353.774C260.563 338.386 246.235 317.858 233.93 296.603L233.024 295.037C227.088 296.898 221.552 297.711 216.702 297.856C215.487 297.892 214.312 297.886 213.181 297.844L276.283 417.17C278 418.994 280.027 420.439 282.321 421.535ZM206.057 292.928L202.87 286.903C202.255 287.769 201.861 288.609 201.664 289.352C201.399 290.35 201.51 291.034 201.741 291.466C202.76 291.981 204.218 292.502 206.057 292.928ZM208.437 297.43L271.767 417.186C268.464 414.545 266.484 411.204 265.594 408.419L265.54 408.249L265.457 408.092L206.796 297.164C207.325 297.261 207.873 297.35 208.437 297.43ZM298.467 241.002C298.444 241.482 298.45 242.006 298.486 242.572C297.948 242.748 297.297 242.94 296.516 243.162C296.17 243.261 295.803 243.364 295.417 243.472L295.411 243.474L295.411 243.474C294.115 243.838 292.597 244.264 290.91 244.785C286.498 246.149 280.857 248.185 274.277 251.665C269.086 254.41 265.955 257.268 263.838 260.298C263.771 260.394 263.704 260.491 263.639 260.588C262.431 256.684 261.501 253.809 260.702 251.456C261.654 251.576 262.665 251.492 263.612 251.341C265.149 251.098 266.915 250.608 268.78 249.996C271.644 249.056 274.942 247.758 278.264 246.452C279.257 246.061 280.251 245.67 281.238 245.287C285.592 243.596 289.789 242.064 293.211 241.302C294.924 240.921 296.327 240.761 297.394 240.826C297.853 240.853 298.202 240.919 298.467 241.002ZM263.908 280.692C262.859 282.668 261.661 284.577 260.35 285.92C259.251 287.046 257.533 288.171 255.646 289.227C253.717 290.306 251.449 291.401 249.125 292.436C245.478 294.06 241.626 295.568 238.601 296.675C250.525 317.008 264.202 336.564 275.443 351.354C281.253 358.999 286.401 365.356 290.307 369.877C292.263 372.14 293.891 373.926 295.127 375.177C295.747 375.805 296.248 376.277 296.628 376.601C296.879 376.816 297.023 376.918 297.078 376.957C297.095 376.969 297.104 376.975 297.104 376.976C298.267 377.398 300.063 376.975 302.078 374.643C304.036 372.376 305.762 368.705 306.467 364.136C306.627 361.391 306.983 359.674 307.233 358.466L307.233 358.466L307.266 358.31C307.277 358.255 307.288 358.201 307.299 358.148C307.536 356.989 307.554 356.639 307.351 356.029C307.071 355.191 306.359 353.935 304.601 351.281C303.733 349.972 302.66 348.392 301.322 346.424L301.322 346.423L301.319 346.419C299.992 344.466 298.405 342.131 296.502 339.3C289.746 329.245 278.793 306.547 267.866 271.796C267.539 272.626 267.182 273.517 266.802 274.434C265.954 276.475 264.973 278.686 263.908 280.692ZM134.71 279.079C153.998 272.162 172.338 262.395 190.105 252.194C195.367 249.173 200.573 246.118 205.738 243.086L205.739 243.086L205.74 243.085C218.055 235.857 230.141 228.764 242.202 222.596C276.401 205.11 309.853 195.365 346.171 211.574C375.631 224.722 396.042 237.816 409.576 248.811C423.158 259.844 429.705 268.674 431.616 273.248L434.384 272.092C432.189 266.838 425.188 257.628 411.468 246.482C397.699 235.297 377.055 222.072 347.394 208.835C309.812 192.062 275.293 202.306 240.837 219.925C228.693 226.135 216.488 233.298 204.138 240.546L204.138 240.547L204.134 240.548C198.987 243.569 193.815 246.605 188.612 249.592C170.883 259.771 152.728 269.43 133.697 276.255C72.7969 298.096 20.1772 285.318 1.65558 276.318L0.344482 279.017C19.5335 288.34 72.9903 301.214 134.71 279.079Z" fill="white"/>
</svg>
