<svg height="auto" width="100%"
viewBox="0 0 280 114"
shape-rendering="geometricPrecision" text-rendering="geometricPrecision">

<g transform="translate(140 57)">

<path id="e7vNkLZwe8C3" d="M193.596478,125.550979c8.989264-1.735046,9.308562-1.908109,18.442302-9.062049c5.91252-4.63094,14.3563-20.50857,14.3563-20.50857s-6.2942,12.71823-12.0065,23.23139c-6.28611,11.56921-12.44851,21.11528-22.16962,23.06107-16.27809,4.80312-64.754665-3.773153-83.32257-8.73931s-63.301687-11.741804-70.685724-11.163454-9.009086,1.424034-18.142826,8.577974c-5.91252,4.63094-14.3563,20.50857-14.3563,20.50857v.00001c0,0,6.2942-12.71823,12.0065-23.23139c6.28611-11.56921,12.44851-21.11528,22.16962-23.06108c16.32033-4.81558,64.584997,3.408988,83.36421,8.69171s61.355344,13.430175,70.344608,11.695129Z" transform="translate(-105 -145)" />

<path id="e7vNkLZwe8C4" d="M193.596478,125.550979c8.989264-1.735046,9.308562-1.908109,18.442302-9.062049c5.91252-4.63094,14.3563-20.50857,14.3563-20.50857s-6.2942,12.71823-12.0065,23.23139c-6.28611,11.56921-12.44851,21.11528-22.16962,23.06107-16.27809,4.80312-64.754665-3.773153-83.32257-8.73931s-63.301687-11.741804-70.685724-11.163454-9.009086,1.424034-18.142826,8.577974c-5.91252,4.63094-14.3563,20.50857-14.3563,20.50857v.00001c0,0,6.2942-12.71823,12.0065-23.23139c6.28611-11.56921,12.44851-21.11528,22.16962-23.06108c16.32033-4.81558,64.584997,3.408988,83.36421,8.69171s61.355344,13.430175,70.344608,11.695129Z" transform="translate(-125 -110)"/>
</g>
</svg>