<svg id="eqV07bBxRpI1" height="auto" width="100%" viewBox="0 0 256 256" shape-rendering="geometricPrecision" text-rendering="geometricPrecision"><path d="M99.53003,215.30855c7.3227-25.50324,24.409-85.01081,24.409-85.01081h.22142c2.27459-7.55011,18.20541-60.45386,25.13101-84.10728c5.99283-16.34994,3.00258-19.81399,14.30824-24.49695s56.85939,8.14701,56.85939,8.14701c10.44892.59729,15.54334-4.13378,15.54334-4.13378c9.18886-.87433,11.84216-2.70915,9.18886,0-4.24479,4.33414-21.68525,15.75751-30.65179,23.25859-2.00215-5.00538-45.31086-8.5902-60.93106-2.77487-7.3227,25.50324-24.409,85.01081-24.409,85.01081h-.22142c-2.27459,7.55011-18.20541,60.45386-25.13101,84.10728-5.99283,16.34994-3.00258,19.81399-14.30824,24.49695s-56.85939-8.14701-56.85939-8.14701c-10.44892-.59729-15.54334,4.13378-15.54334,4.13378-9.18886.87433-11.84216,2.70915-9.18886,0c4.24479-4.33414,21.68525-15.75751,30.65179-23.25859c2.00215,5.00538,45.31086,8.5902,60.93106,2.77487Z" transform="translate(1.430765-2.749491)" stroke-width="0" stroke-linecap="square" stroke-miterlimit="10"/><path d="M82.21628,41.622388c-10.07285-17.37061-45.29812-8.839198-48.6065,3.004842-14.16224,1.48942-11.47665,2.70915-8.82335,0C34.60346,26.06368,65.51398,7.64311,88.94709,19.46365s20.038216,0,12.178676,13.52441c10.4486,27.51829,36.293418,91.869139,36.293418,91.869139l37.721328,93.471341c10.07285,17.37061,41.358298,11.84404,44.666678,0c14.16224-1.48942,11.47665-2.70915,8.82335,0-9.81703,18.56355-40.72755,36.98412-64.16066,25.16358s-18.035297-3.004842-10.175757-16.529252c-10.4486-27.51829-36.63159-95.01194-36.63159-95.01194L82.21628,41.622388Z" transform="matrix(1.192344 0 0 0.95493-23.080128 2.44788)" stroke-width="0" stroke-linecap="square" stroke-miterlimit="10"/><path d="M32.67938,116.43774c-5.05913,0-15.54334,6.54152-15.54334,6.54152-9.18886.87433-11.84216,2.70915-9.18886,0c4.24479-4.33414,21.68525-15.75751,30.65179-23.25859l74.04704,4.07271c5.05913,0,15.54334-6.54152,15.54334-6.54152c9.18886-.87433,11.84216-2.70915,9.18886,0-4.24479,4.33414-21.68525,15.75751-30.65179,23.25859" transform="translate(55.337305 17.884385)" stroke-width="0" stroke-linecap="square" stroke-miterlimit="10"/></svg>
