<svg id="e0dLG5j8lzr1" height="auto" width="100%"
viewBox="0 0 256 256" shape-rendering="geometricPrecision" text-rendering="geometricPrecision"><path d="M190.122673,99.809567C212.882957,113.892179,222.999819,123.66586,227.244609,128c2.6533,2.70915,0,.87433-9.18886,0c0,0-17.484156-9.307504-27.933076-8.710214C148.050631,113.927494,88.73595,141.705218,67.355076,128s-35.635969-23.856293-39.880759-28.190433c-2.6533-2.70915,0-.87433,9.18886,0c0,0,14.011223,9.662913,24.460143,9.065623c38.303067,4.437951,106.239069-23.148235,128.999353-9.065623Z" transform="matrix(1 0 0-1.331311 17.899351 194.59579)" stroke-width="0" stroke-linecap="square" stroke-miterlimit="10"/><path d="M190.122673,99.809567C212.882957,113.892179,222.999819,123.66586,227.244609,128c2.6533,2.70915,0,.87433-9.18886,0c0,0-17.484156-9.307504-27.933076-8.710214C148.050631,113.927494,88.73595,141.705218,67.355076,128s-35.635969-23.856293-39.880759-28.190433c-2.6533-2.70915,0-.87433,9.18886,0c0,0,14.011223,9.662913,24.460143,9.065623c38.303067,4.437951,106.239069-23.148235,128.999353-9.065623Z" transform="matrix(1 0 0-1.331311 3.009394 279.459546)" stroke-width="0" stroke-linecap="square" stroke-miterlimit="10"/><path d="M190.122673,99.809567C212.882957,113.892179,222.999819,123.66586,227.244609,128c2.6533,2.70915,0,.87433-9.18886,0c0,0-17.484156-9.307504-27.933076-8.710214C148.050631,113.927494,88.73595,141.705218,67.355076,128s-35.635969-23.856293-39.880759-28.190433c-2.6533-2.70915,0-.87433,9.18886,0c0,0,14.011223,9.662913,24.460143,9.065623c38.303067,4.437951,106.239069-23.148235,128.999353-9.065623Z" transform="matrix(1 0 0-1.331311-14.587827 364.323304)" stroke-width="0" stroke-linecap="square" stroke-miterlimit="10"/></svg>
