<svg id="e7vNkLZwe8C1" xmlns="http://www.w3.org/2000/svg" xmlns:xlink="http://www.w3.org/1999/xlink" viewBox="0 0 256 256" shape-rendering="geometricPrecision" text-rendering="geometricPrecision"><g transform="matrix(-.652595-.263961 0.293053-.724518 166.951367 309.244291)"><path id="e7vNkLZwe8C3" d="M193.596478,125.550979c8.989264-1.735046,9.308562-1.908109,18.442302-9.062049c5.91252-4.63094,14.3563-20.50857,14.3563-20.50857s-6.2942,12.71823-12.0065,23.23139c-6.28611,11.56921-12.44851,21.11528-22.16962,23.06107-16.27809,4.80312-64.754665-3.773153-83.32257-8.73931s-63.301687-11.741804-70.685724-11.163454-9.009086,1.424034-18.142826,8.577974c-5.91252,4.63094-14.3563,20.50857-14.3563,20.50857v.00001c0,0,6.2942-12.71823,12.0065-23.23139c6.28611-11.56921,12.44851-21.11528,22.16962-23.06108c16.32033-4.81558,64.584997,3.408988,83.36421,8.69171s61.355344,13.430175,70.344608,11.695129Z" transform="matrix(.01 0 0 0.01 137.823943 211.018438)" opacity="0" stroke-width="0"/><path id="e7vNkLZwe8C4" d="M193.596478,125.550979c8.989264-1.735046,9.308562-1.908109,18.442302-9.062049c5.91252-4.63094,14.3563-20.50857,14.3563-20.50857s-6.2942,12.71823-12.0065,23.23139c-6.28611,11.56921-12.44851,21.11528-22.16962,23.06107-16.27809,4.80312-64.754665-3.773153-83.32257-8.73931s-63.301687-11.741804-70.685724-11.163454-9.009086,1.424034-18.142826,8.577974c-5.91252,4.63094-14.3563,20.50857-14.3563,20.50857v.00001c0,0,6.2942-12.71823,12.0065-23.23139c6.28611-11.56921,12.44851-21.11528,22.16962-23.06108c16.32033-4.81558,64.584997,3.408988,83.36421,8.69171s61.355344,13.430175,70.344608,11.695129Z" transform="matrix(.01 0 0 0.01 154.359062 181.850296)" opacity="0" stroke-width="0"/><path id="e7vNkLZwe8C5" d="M108.89639,133.53351c-18.567905-4.966157-63.301687-11.741804-70.685724-11.163454s-9.009086,1.424034-18.142826,8.577974c-5.91252,4.63094-14.3563,20.50857-14.3563,20.50857v.00001c0,0,6.2942-12.71823,12.0065-23.23139c6.28611-11.56921,12.44851-21.11528,22.16962-23.06108c16.32033-4.81558,64.584997,3.408988,83.36421,8.69171" transform="matrix(0 0 0 0 26.202829 240.511373)" stroke-width="0"/><path id="e7vNkLZwe8C6" d="M108.89639,133.53351c-18.567905-4.966157-63.301687-11.741804-70.685724-11.163454s-9.009086,1.424034-18.142826,8.577974c-5.91252,4.63094-14.3563,20.50857-14.3563,20.50857v.00001c0,0,6.2942-12.71823,12.0065-23.23139c6.28611-11.56921,12.44851-21.11528,22.16962-23.06108c16.32033-4.81558,64.584997,3.408988,83.36421,8.69171" transform="matrix(0 0 0 0 269.469185 152.084267)" opacity="0.91" stroke-width="0"/></g>

</svg>
